<svg width="17" height="16" viewBox="0 0 17 16" fill="none" xmlns="http://www.w3.org/2000/svg">
<path d="M11.56 6H10.5V2.66667C10.5 2.3 10.2 2 9.83333 2H7.16667C6.8 2 6.5 2.3 6.5 2.66667V6H5.44C4.84667 6 4.54667 6.72 4.96667 7.14L8.02667 10.2C8.28667 10.46 8.70667 10.46 8.96667 10.2L12.0267 7.14C12.4467 6.72 12.1533 6 11.56 6ZM3.83333 12.6667C3.83333 13.0333 4.13333 13.3333 4.5 13.3333H12.5C12.8667 13.3333 13.1667 13.0333 13.1667 12.6667C13.1667 12.3 12.8667 12 12.5 12H4.5C4.13333 12 3.83333 12.3 3.83333 12.6667Z" fill="#CD6D1A"/>
</svg>
