<svg width="454" height="100" viewBox="0 0 454 100" fill="none" xmlns="http://www.w3.org/2000/svg">
<path fill-rule="evenodd" clip-rule="evenodd" d="M0.233658 14.2803C0.233658 12.0711 2.02452 10.2803 4.23366 10.2803H75.6729C77.882 10.2803 79.6729 12.0711 79.6729 14.2803V85.7195C79.6729 87.9287 77.882 89.7195 75.6729 89.7195H4.23366C2.02452 89.7195 0.233658 87.9287 0.233658 85.7195V14.2803ZM53.0923 58.1012C53.7522 59.7314 54.1142 61.5125 54.1142 63.3752V73.5877H63.5411V63.3752C63.5411 59.0275 62.3571 54.9501 60.2944 51.4496C58.3537 54.1092 55.9053 56.3742 53.0923 58.1012ZM54.1142 36.6657V26.4532H63.5411V36.6657C63.5411 41.0134 62.3571 45.0908 60.2959 48.5913C60.0079 49.079 59.7026 49.5567 59.382 50.0205C57.5445 52.6838 55.1713 54.9526 52.4212 56.6708C51.9775 56.9473 51.5237 57.2113 51.0599 57.4589C47.7542 59.2287 43.9797 60.2329 39.9739 60.2329C35.9681 60.2329 32.1935 59.2287 28.8878 57.4589C31.0058 53.5021 35.1812 50.806 39.9739 50.806C41.6016 50.806 43.1652 50.5295 44.6207 50.0205C47.9717 48.8528 50.7532 46.4546 52.4212 43.3701C52.6713 42.9076 52.8963 42.4299 53.0936 41.9385C53.7523 40.3082 54.1142 38.5284 54.1142 36.6657ZM35.327 50.0205C36.7825 49.5114 38.3461 49.2349 39.9738 49.2349C44.7665 49.2349 48.942 46.5375 51.0599 42.582C47.7542 40.8122 43.9796 39.808 39.9738 39.808C35.968 39.808 32.1935 40.8122 28.8878 42.582C28.424 42.8296 27.9703 43.0936 27.5266 43.3701C24.7764 45.087 22.4034 47.3558 20.5657 50.0205C20.2452 50.4842 19.9398 50.9619 19.6532 51.4496C17.5906 54.9514 16.4066 59.0288 16.4066 63.3752V73.5877H25.8335V63.3752C25.8335 61.5125 26.1955 59.7314 26.8554 58.1012C27.0514 57.6097 27.2764 57.1333 27.5266 56.6708C29.1945 53.5863 31.9748 51.1881 35.327 50.0205ZM26.8537 41.9387C26.8538 41.9391 26.854 41.9394 26.8541 41.9397V41.9385C26.854 41.9385 26.8538 41.9386 26.8537 41.9387ZM25.8335 36.667C25.8335 38.5293 26.1953 40.3087 26.8537 41.9387C24.0409 43.667 21.5926 45.9331 19.652 48.5913C17.5906 45.0908 16.4066 41.0134 16.4066 36.6657V26.4532H25.8335V36.667Z" fill="#FFFAF1"/>
<path d="M124.43 79.4502C108.436 79.4502 95.5146 66.4502 95.5146 50.535C95.5146 34.6199 108.436 21.6199 124.43 21.6199C140.345 21.6199 153.345 34.6199 153.345 50.535C153.345 66.4502 140.345 79.4502 124.43 79.4502ZM124.43 67.3168C133.49 67.3168 140.66 59.5956 140.66 50.535C140.66 41.4744 133.49 33.7532 124.43 33.7532C115.29 33.7532 108.121 41.4744 108.121 50.535C108.121 59.5956 115.29 67.3168 124.43 67.3168Z" fill="#FFFAF1"/>
<path d="M161.989 78.5047V22.5653H181.055C196.813 22.5653 209.577 35.0138 209.577 50.535C209.577 66.0562 196.813 78.5047 181.055 78.5047H161.989ZM174.516 67.0017H181.055C190.51 67.0017 196.892 59.5168 196.892 50.535C196.892 41.5532 190.51 34.0684 181.055 34.0684H174.516V67.0017Z" fill="#FFFAF1"/>
<path d="M228.359 78.5047V54.9471L207.953 22.5653H222.529L234.583 42.735L246.795 22.5653H261.371L240.965 55.0259V78.5047H228.359Z" fill="#FFFAF1"/>
<path d="M284.301 79.4502C270.435 79.4502 262.713 69.9168 262.241 60.5411H274.768C275.556 65.2684 279.417 67.8684 284.301 67.8684C288.477 67.8684 291.55 66.0562 291.55 62.9047C291.55 60.3047 289.58 58.2562 284.223 56.8381L278.786 55.4199C269.883 53.0562 263.738 47.3835 263.659 38.6381C263.58 28.0805 271.301 21.6199 282.883 21.6199C295.095 21.6199 302.738 30.5229 303.053 39.1108H290.604C289.344 34.6987 285.877 33.2017 282.883 33.2017C279.259 33.2017 276.344 34.7775 276.265 37.7714C276.186 40.8441 278.707 42.6562 283.041 43.7593L289.423 45.4138C298.562 47.7775 304.235 53.7653 304.235 62.5108C304.235 72.0441 296.356 79.4502 284.301 79.4502Z" fill="#FFFAF1"/>
<path d="M331.697 79.4502C317.831 79.4502 310.109 69.9168 309.637 60.5411H322.164C322.952 65.2684 326.812 67.8684 331.697 67.8684C335.873 67.8684 338.946 66.0562 338.946 62.9047C338.946 60.3047 336.976 58.2562 331.618 56.8381L326.182 55.4199C317.279 53.0562 311.134 47.3835 311.055 38.6381C310.976 28.0805 318.697 21.6199 330.279 21.6199C342.491 21.6199 350.134 30.5229 350.449 39.1108H338C336.74 34.6987 333.273 33.2017 330.279 33.2017C326.655 33.2017 323.74 34.7775 323.661 37.7714C323.582 40.8441 326.103 42.6562 330.437 43.7593L336.818 45.4138C345.958 47.7775 351.631 53.7653 351.631 62.5108C351.631 72.0441 343.752 79.4502 331.697 79.4502Z" fill="#FFFAF1"/>
<path d="M360.42 78.5047V22.5653H395.875V34.5411H372.948V44.5471H391.148V56.5229H372.948V66.529H395.875V78.5047H360.42Z" fill="#FFFAF1"/>
<path d="M420.558 78.5047V54.9471L400.152 22.5653H414.728L426.782 42.735L438.995 22.5653H453.57L433.164 55.0259V78.5047H420.558Z" fill="#FFFAF1"/>
</svg>
